<svg width="25" height="22" viewBox="0 0 25 22" fill="none" xmlns="http://www.w3.org/2000/svg">
<path d="M17.9 1C16.7871 1.00014 15.6956 1.30496 14.7437 1.8814C13.7917 2.45785 13.0158 3.28391 12.5 4.27C11.8662 3.06378 10.8469 2.10448 9.60443 1.54506C8.36198 0.985631 6.96801 0.858295 5.64477 1.18335C4.32154 1.50841 3.14523 2.26714 2.30341 3.33857C1.46159 4.41 1.00273 5.73243 1 7.095C1 10.46 3.09 13.535 5.79 16.06C7.87296 17.9058 10.1188 19.5593 12.5 21C14.8633 19.5327 17.107 17.8809 19.21 16.06C22.21 13.32 24 10.46 24 7.095C24 6.29417 23.8422 5.5012 23.5356 4.76139C23.229 4.02159 22.7796 3.34946 22.213 2.78342C21.6465 2.21738 20.974 1.76853 20.234 1.46252C19.4939 1.15651 18.7008 0.999345 17.9 1V1Z" stroke="white" stroke-width="1.5" stroke-miterlimit="10"/>
</svg>
