<svg width="23" height="20" viewBox="0 0 23 20" fill="none" xmlns="http://www.w3.org/2000/svg">
<path d="M16.9 2.05105e-06C15.7871 0.000144056 14.6956 0.304964 13.7437 0.881405C12.7917 1.45785 12.0158 2.28391 11.5 3.27C10.8662 2.06378 9.84687 1.10448 8.60443 0.545056C7.36198 -0.0143688 5.96801 -0.141705 4.64477 0.183351C3.32154 0.508407 2.14523 1.26714 1.30341 2.33857C0.461589 3.41 0.0027316 4.73243 0 6.095C0 9.46 2.09 12.535 4.79 15.06C6.87296 16.9058 9.1188 18.5593 11.5 20C13.8633 18.5327 16.107 16.8809 18.21 15.06C21.21 12.32 23 9.46 23 6.095C23 5.29417 22.8422 4.5012 22.5356 3.76139C22.229 3.02159 21.7796 2.34946 21.213 1.78342C20.6465 1.21738 19.974 0.768529 19.234 0.462521C18.4939 0.156512 17.7008 -0.000654904 16.9 2.05105e-06Z" fill="#1BC98E"/>
</svg>
